<svg viewBox="0 0 89 78" xmlns="http://www.w3.org/2000/svg" xmlns:xlink="http://www.w3.org/1999/xlink"><style>:root&gt;svg{display:none}:root&gt;svg:target{display:block}</style><svg fill="none" viewBox="0 0 36 37" id="delivery" xmlns="http://www.w3.org/2000/svg"><path d="M33.625 17.878h1.86a17.766 17.766 0 00-4.68-11.463L29.688 7.55l-.883-.896 1.117-1.133A17.171 17.171 0 0018.625.77v1.887h-1.25V.771A17.25 17.25 0 006.078 5.52l1.117 1.133-.883.896-1.117-1.134a17.685 17.685 0 00-4.68 11.463h1.86v1.268H.515a17.834 17.834 0 001.97 7.594l2.273-.452L5 27.533l-1.852.364a17.628 17.628 0 002.485 3.163 17.282 17.282 0 0011.75 5.192v-1.886h1.25v1.886a17.25 17.25 0 0011.297-4.748l-1.117-1.134.882-.895 1.117 1.133a17.766 17.766 0 004.68-11.462h-1.867v-1.268zm-25.102 1.91l.204 1.253-3.75.634-.204-1.253 3.75-.634zm-5.421 5.057l-.204-1.252 4.375-.737.204 1.252-4.375.737zm26.773.746a1.901 1.901 0 01-1.719 1.894l-4.008.34c-.578 3.1-3.523 5.13-6.578 4.543-1.937-.373-3.539-1.752-4.226-3.623l-5.196.436c-.054.008-.101.008-.156.008a1.884 1.884 0 01-1.875-1.902v-1.8h1.25v1.792c0 .349.281.634.625.634h.055l5-.42c-.399-3.123 1.773-5.985 4.86-6.397a5.547 5.547 0 013.53.713l-.625 1.094a4.334 4.334 0 00-5.968 1.625c-1.203 2.125-.492 4.836 1.601 6.056a4.334 4.334 0 005.97-1.625 4.487 4.487 0 00.358-3.622l-4.148 4.217-2.32-2.354.883-.896 1.43 1.45 4.484-4.55.406.722c.445.8.695 1.696.734 2.608l3.805-.325a.634.634 0 00.57-.634V10.379a.632.632 0 00-.625-.634h-.055l-4.312.364v10.94h-1.25V10.22l-5.625.476v7.974l-6.25.531V11.22l-2.555.214a.634.634 0 00-.57.634v6.445h-1.25v-6.445a1.9 1.9 0 011.719-1.894l20-1.689c1.031-.087 1.937.69 2.023 1.736.008.056.008.103.008.159v15.21z" fill="#DA5D1A"/></svg><svg fill="none" viewBox="0 0 11 18" id="facebook" xmlns="http://www.w3.org/2000/svg"><path d="M10.167.666h-2.5A4.167 4.167 0 003.5 4.833v2.5H1v3.333h2.5v6.667h3.333v-6.666h2.5l.834-3.334H6.833v-2.5A.833.833 0 017.667 4h2.5V.666z" stroke="#000" stroke-linecap="round" stroke-linejoin="round"/></svg><svg fill="none" viewBox="0 0 12 6" id="filter" xmlns="http://www.w3.org/2000/svg"><path d="M0 0l5.293 5.293a1 1 0 001.414 0L12 0" fill="#C4C4C4"/></svg><svg fill="none" viewBox="0 0 12 6" id="filterwhite" xmlns="http://www.w3.org/2000/svg"><path d="M0 0l5.293 5.293a1 1 0 001.414 0L12 0" fill="#fff"/></svg><svg fill="none" viewBox="0 0 18 18" id="instagram" xmlns="http://www.w3.org/2000/svg"><path d="M13.167.666H4.833A4.167 4.167 0 00.667 4.833v8.333a4.167 4.167 0 004.166 4.167h8.334a4.167 4.167 0 004.166-4.166V4.832A4.167 4.167 0 0013.167.666z" stroke="#000" stroke-linecap="round" stroke-linejoin="round"/><path d="M12.332 8.475a3.333 3.333 0 11-6.594.978 3.333 3.333 0 016.594-.978zm1.251-4.058h.008" stroke="#000" stroke-linecap="round" stroke-linejoin="round"/></svg><svg fill="none" viewBox="0 0 19 18" id="linkedin" xmlns="http://www.w3.org/2000/svg"><path d="M12.559 5.905a4.98 4.98 0 013.503 1.436 4.88 4.88 0 011.45 3.468v5.722H14.21v-5.722c0-.434-.174-.85-.484-1.156a1.66 1.66 0 00-2.335 0c-.31.307-.483.722-.483 1.156v5.722H7.605v-5.722c0-1.3.522-2.548 1.45-3.468a4.98 4.98 0 013.504-1.436zm-8.256.816H1v9.809h3.303V6.72zM2.652 4.27c.911 0 1.65-.732 1.65-1.635S3.565 1 2.653 1C1.74 1 1 1.732 1 2.635S1.74 4.27 2.652 4.27z" stroke="#000" stroke-linecap="round" stroke-linejoin="round"/></svg><svg fill="none" viewBox="0 0 10 16" id="next" xmlns="http://www.w3.org/2000/svg"><path d="M1.714 1.429L8.286 8l-6.572 6.572" stroke="#fff" stroke-width="2" stroke-linecap="round" stroke-linejoin="round"/></svg><svg fill="none" viewBox="0 0 76 78" id="offer" xmlns="http://www.w3.org/2000/svg"><path d="M38 77.048C17.172 77.048.227 59.852.227 38.713.227 17.575 17.172.38 38 .38c20.828 0 37.773 17.196 37.773 38.334 0 21.139-16.944 38.335-37.773 38.335zm0-74.814c-19.82 0-35.945 16.364-35.945 36.48C2.055 58.828 18.18 75.192 38 75.192s35.945-16.364 35.945-36.48c0-20.115-16.124-36.48-35.945-36.48z" fill="#DA5D1A"/><path d="M46.781 31.942c.929 0 1.682-.709 1.682-1.582 0-.874-.753-1.582-1.682-1.582-.929 0-1.682.708-1.682 1.582 0 .873.753 1.582 1.682 1.582zM40.69 49.403c.195.289.468.428.836.428.368 0 .641-.14.836-.428.208-.306.314-.746.314-1.31 0-.56-.106-1-.314-1.308-.196-.289-.47-.429-.836-.429-.367 0-.64.141-.836.43-.209.307-.315.748-.315 1.308s.106 1.002.315 1.31zm-8.757-5.95c.196.29.47.43.837.43s.64-.142.836-.43l.002-.001c.208-.304.314-.745.314-1.307 0-.562-.106-1.002-.314-1.309-.195-.288-.47-.429-.836-.429-.367 0-.641.141-.838.43-.207.307-.313.747-.313 1.308-.001.563.105 1.002.312 1.308zm-2.714-11.511c.929 0 1.682-.709 1.682-1.582 0-.874-.753-1.582-1.682-1.582-.929 0-1.682.708-1.682 1.582 0 .873.753 1.582 1.682 1.582zM59.97 57.14H16.03l-.652 6.467h45.245l-.652-6.467z" fill="#DA5D1A"/><path d="M29.893 27.49c1.345.3 2.356 1.47 2.356 2.87 0 1.626-1.36 2.95-3.03 2.95-1.67 0-3.031-1.324-3.031-2.95 0-1.4 1.01-2.57 2.357-2.87v-3.488h-9.18l-3.2 31.768h43.667L56.635 24h-9.181v3.489c1.347.3 2.357 1.47 2.357 2.87 0 1.626-1.36 2.95-3.031 2.95-1.67 0-3.03-1.324-3.03-2.95 0-1.4 1.01-2.57 2.356-2.87v-3.488H29.893v3.488zm12.746 17.547c.34.142.643.358.9.64.253.283.451.629.59 1.03.14.398.21.864.21 1.386 0 .523-.07.99-.21 1.387-.139.4-.337.747-.59 1.028-.257.284-.56.5-.9.643a2.87 2.87 0 01-1.112.214c-.398 0-.773-.073-1.111-.214a2.526 2.526 0 01-.901-.642 2.988 2.988 0 01-.591-1.029c-.139-.394-.21-.862-.21-1.387s.071-.99.21-1.386c.138-.401.336-.747.59-1.03.255-.281.557-.496.9-.641a2.981 2.981 0 012.225.001zm-1.192-5.913L34.78 51.116h-1.93l6.666-11.992h1.93zm-7.565-.035a2.5 2.5 0 01.9.642c.25.277.45.622.59 1.026l.002.002c.137.398.207.865.207 1.387s-.07.988-.207 1.387c-.143.405-.342.75-.593 1.028a2.51 2.51 0 01-.9.642 2.857 2.857 0 01-1.112.215 2.89 2.89 0 01-1.111-.214 2.514 2.514 0 01-.9-.643 2.952 2.952 0 01-.59-1.028 4.253 4.253 0 01-.21-1.387c0-.52.07-.986.21-1.387a2.94 2.94 0 01.593-1.03 2.5 2.5 0 01.898-.64 2.972 2.972 0 012.223 0z" fill="#DA5D1A"/><path d="M46.107 24.038h1.348v-6.587c0-4.73-4.241-8.58-9.455-8.58s-9.455 3.849-9.455 8.58v6.625h1.348V17.45c0-3.976 3.637-7.21 8.107-7.21 4.47 0 8.107 3.234 8.107 7.21v6.587z" fill="#DA5D1A"/></svg><svg fill="none" viewBox="0 0 84 61" id="payment" xmlns="http://www.w3.org/2000/svg"><path d="M43.327 22.3h-5.74a.937.937 0 00-.934.935c0 .514.42.935.935.935h5.74c.513 0 .934-.42.934-.935a.938.938 0 00-.935-.935zm-16.172 1.87h5.74c.514 0 .935-.42.935-.935a.938.938 0 00-.935-.935h-5.74a.937.937 0 00-.934.935c0 .514.42.935.934.935zm-10.432 0h5.74c.514 0 .934-.42.934-.935a.938.938 0 00-.934-.935h-5.74a.938.938 0 00-.935.935c0 .514.421.935.935.935zm-10.423 0h5.74c.514 0 .935-.42.935-.935a.938.938 0 00-.935-.935H6.3a.937.937 0 00-.934.935c0 .514.41.935.934.935zm37.027 6.29H6.3a.938.938 0 00-.934.936c0 .514.42.934.934.934h37.037c.514 0 .934-.42.934-.934a.946.946 0 00-.944-.935z" fill="#DA5D1A"/><path d="M72.204 23.618V.838H0v49.665h49.259c3.168 5.814 9.24 9.768 16.197 9.768C75.682 60.271 84 51.755 84 41.286c0-8.03-4.903-14.891-11.796-17.668zM51.395 50.503a19.676 19.676 0 01-.557-.935c-.164-.309-.31-.617-.456-.935a17.326 17.326 0 01-1.644-7.347c0-9.442 7.496-17.116 16.718-17.116 1.707 0 3.36.27 4.921.757.31.103.612.224.913.337.31.121.612.233.913.373 5.862 2.665 9.97 8.675 9.97 15.649 0 9.441-7.495 17.116-16.717 17.116-5.898 0-11.084-3.15-14.06-7.9zm-49.569-1.87V16.02h68.551V23c-1.57-.439-3.213-.7-4.92-.7-10.227 0-18.545 8.515-18.545 18.985 0 2.608.52 5.085 1.452 7.347H1.826zm0-45.926h68.551v2.599H1.827V2.707zm0 11.442V7.175h68.551v6.974H1.827z" fill="#DA5D1A"/><path d="M73.296 36.827v-1.991c0-.673-.112-1.318-.308-1.935a6.362 6.362 0 00-.935-1.804 6.253 6.253 0 00-5.038-2.543 6.28 6.28 0 00-6.273 6.272v1.991H59.2v15.63h15.63v-15.62h-1.534zm-10.684-1.991a4.41 4.41 0 014.402-4.403 4.416 4.416 0 014.403 4.403v1.99h-8.815v-1.99h.01zm10.348 15.75H61.07v-11.89h11.89v11.891z" fill="#DA5D1A"/><path d="M67.015 39.893a2.9 2.9 0 00-2.898 2.898c0 1.271.822 2.337 1.963 2.73v2.953c0 .066.028.112.037.178a.92.92 0 00.898.757.92.92 0 00.897-.757c.01-.056.037-.112.037-.178v-2.963a2.888 2.888 0 001.963-2.73 2.898 2.898 0 00-2.897-2.888zm0 3.917a1.033 1.033 0 01-1.029-1.029c0-.57.458-1.028 1.029-1.028.57 0 1.028.458 1.028 1.028 0 .57-.458 1.029-1.028 1.029z" fill="#DA5D1A"/></svg><svg fill="none" viewBox="0 0 10 16" id="prev" xmlns="http://www.w3.org/2000/svg"><path d="M8.286 14.571L1.714 8l6.572-6.572" stroke="#fff" stroke-width="2" stroke-linecap="round" stroke-linejoin="round"/></svg><svg fill="none" viewBox="0 0 89 60" id="shiping" xmlns="http://www.w3.org/2000/svg"><path d="M75.099 15.662H63.02c-.46 0-.878.188-1.181.491a1.667 1.667 0 00-.491 1.181v30.52c0 .46.188.879.491 1.182.303.303.721.49 1.181.49h2.215l.001-.012.003-.022.01-.08.004-.035.009-.065.008-.057.006-.044.009-.057.008-.048.01-.059v-.005l.016-.09v-.006l.018-.095.013-.066.007-.035.013-.062.01-.044.01-.049.014-.06.01-.044.01-.047.016-.061v-.005l.022-.084.002-.009.025-.093.024-.089.002-.004.02-.07.009-.031.017-.058.017-.055.01-.035.02-.062.015-.046.013-.038.02-.06v-.001l.032-.09v-.003l.032-.087v-.004l.017-.043.023-.062.015-.039.019-.05.02-.048.02-.053.017-.04.031-.076.007-.016.022-.05.045-.103.013-.03.007-.015.01-.02.03-.067.023-.05.014-.03.029-.059.023-.048.017-.034.032-.062.012-.025.008-.016.042-.081.002-.002.044-.083.006-.011.013-.024.035-.064.014-.024.036-.065.018-.03.032-.054.025-.044.02-.034.033-.053.002-.004.047-.075.003-.005.05-.08.005-.007.046-.072.006-.009.025-.038.03-.044.03-.044.029-.043.025-.036.045-.065.01-.013.047-.065.014-.02.005-.007.055-.075.004-.005.063-.083.014-.018.045-.058.025-.032.041-.052.022-.026.047-.059.016-.019.049-.059.016-.019.007-.009.061-.07.002-.003.06-.068.012-.013.05-.057.007-.008.039-.042.034-.037.029-.03.046-.05.023-.025.045-.045.022-.024.01-.01.066-.067a9.006 9.006 0 016.388-2.646 9.005 9.005 0 016.387 2.646l.065.066.011.011.023.024.044.045.023.025.047.05.028.03.034.037.039.042.007.008.05.057.012.013.06.068.002.002.06.071.008.01.016.018.05.06.015.018.047.059.022.026.042.052.024.032.045.058.014.018.063.083.004.005.055.075.005.007.015.02.047.065.009.013.046.065.025.036.03.043.029.044.029.044.025.038.006.01.046.07.006.008.05.08.003.005.046.075.002.004.032.053.02.034.027.044.031.053.018.031.036.065.014.024.035.064.013.024.006.01.045.084.001.002.042.08.008.017.013.025.031.062.017.034.024.048.028.059.014.03.024.05.03.066.01.021.006.014.014.03.045.103.022.051.006.016.031.076.017.04.021.053.02.049.019.05.014.038.023.062.016.043.002.004.031.087.001.003.031.09v.001l.02.06.013.038.015.046.02.063.01.034.017.055.017.058.01.03.02.07v.005l.025.089.025.093.002.01.022.083v.005l.015.061.011.047.01.044.014.06.011.05.01.043.012.062.007.035.013.065.018.096v.007l.016.09v.005l.01.058.008.048.009.057.006.044.008.057.01.065.003.034.01.081.003.022.001.013h2.091c.46 0 .878-.188 1.181-.491.304-.303.492-.721.492-1.182v-3.453h-3.113c-.348 0-.665-.143-.895-.372h-.002a1.266 1.266 0 01-.373-.898V39.59c0-.35.143-.668.373-.898v.001c.232-.23.55-.373.897-.373h3.113v-6.843l-10.477-15.1a1.665 1.665 0 00-.593-.535 1.678 1.678 0 00-.782-.179zm-43.02-4.386a.68.68 0 11.875-1.04l2.671 2.249 4.726-6.566a.68.68 0 011.105.795l-5.155 7.162-.032.04a.68.68 0 01-.958.082l-3.233-2.722zM36.867.416c2.774 0 5.286 1.124 7.104 2.942a10.015 10.015 0 012.89 6.08h7.232c.566 0 1.025.458 1.025 1.024v27.094h2.141c.742 0 1.439.2 2.04.547V17.334a3.71 3.71 0 011.091-2.63 3.71 3.71 0 012.63-1.091H75.1c.617 0 1.202.144 1.727.419.523.273.974.672 1.329 1.184l10.613 15.296c.145.177.232.403.232.65v16.692a3.71 3.71 0 01-1.092 2.63 3.71 3.71 0 01-2.63 1.092h-2.09a9.003 9.003 0 01-2.59 5.363c-.34.34-.709.655-1.1.938h5.587a.683.683 0 010 1.366H76.68a9.042 9.042 0 01-2.468.342c-.856 0-1.684-.12-2.47-.342H60.48a.683.683 0 010-1.366h8.447a9.049 9.049 0 01-3.69-6.301h-2.215a3.71 3.71 0 01-2.8-1.274l-.072.074c-.74.74-1.763 1.2-2.889 1.2H39.732a9.005 9.005 0 01-2.588 5.363 9.08 9.08 0 01-1.101.938h13.761a.683.683 0 010 1.366H33.225a9.047 9.047 0 01-2.468.342c-.857 0-1.685-.12-2.47-.342H10.935a.683.683 0 010-1.366H25.47a9.045 9.045 0 01-1.1-.938 9.003 9.003 0 01-2.589-5.363h-5.963a4.077 4.077 0 01-2.889-1.2 4.077 4.077 0 01-1.2-2.889v-5.843c0-1.125.46-2.148 1.2-2.888.74-.74 1.763-1.2 2.889-1.2h2.798V10.462c0-.566.459-1.024 1.025-1.024h7.232c.24-2.366 1.3-4.488 2.89-6.08A10.016 10.016 0 0136.869.415zm9.995 11.07a10.015 10.015 0 01-2.891 6.08 10.016 10.016 0 01-7.104 2.943 10.016 10.016 0 01-7.104-2.943 10.014 10.014 0 01-2.891-6.08h-6.208v26.07H53.07v-26.07h-6.207zm-3.857-7.162a8.653 8.653 0 00-6.138-2.543 8.653 8.653 0 00-6.139 2.543 8.652 8.652 0 00-2.525 5.59 1.018 1.018 0 010 1.096 8.652 8.652 0 002.525 5.59 8.653 8.653 0 006.139 2.543 8.653 8.653 0 006.138-2.543 8.651 8.651 0 002.539-5.89 1.029 1.029 0 010-.496 8.652 8.652 0 00-2.539-5.89zm13.017 54.92a.683.683 0 010-1.367h1.244a.683.683 0 010 1.366h-1.244zm-12.817-25.11a.512.512 0 010-1.025h3.854a.512.512 0 010 1.024h-3.854zm16.093 7.51c0-.56-.229-1.07-.6-1.44-.37-.37-.88-.6-1.439-.6H15.818c-.56 0-1.07.23-1.44.6-.37.37-.6.88-.6 1.44v5.843c0 .56.23 1.07.6 1.44.37.37.88.6 1.44.6h5.963a9.005 9.005 0 012.588-5.363 9.005 9.005 0 016.388-2.646 9.007 9.007 0 016.387 2.646 9.006 9.006 0 012.588 5.363H57.26c.56 0 1.07-.23 1.44-.6.37-.37.6-.88.6-1.44v-5.843zm27.652 1.732v-4.033h-3.113a.243.243 0 00-.173.07v.003a.246.246 0 00-.072.173v3.543c0 .066.028.128.072.172v.001a.247.247 0 00.173.071h3.113zM.548 30.975a.512.512 0 110-1.024h.525a.512.512 0 110 1.024H.548zm4.718 0a.512.512 0 110-1.024h10.71a.513.513 0 110 1.024H5.266zm2.532-6.829a.512.512 0 010-1.024h8.178a.512.512 0 110 1.024H7.798zM65.23 35.739a.512.512 0 010-1.025h2.537a.512.512 0 010 1.025H65.23zm-34.473 11.77c.838 0 1.598.341 2.148.892h.003c.55.55.89 1.31.89 2.15a3.037 3.037 0 01-3.041 3.042c-.84 0-1.601-.34-2.152-.89l-.038-.043a3.03 3.03 0 01.04-4.258l-.002-.001a3.034 3.034 0 012.152-.892zm1.186 1.856a1.673 1.673 0 00-1.186-.49c-.463 0-.882.188-1.186.491h-.002c-.302.302-.488.72-.488 1.185 0 .45.175.858.46 1.157l.03.029a1.672 1.672 0 002.37 0 1.67 1.67 0 00.491-1.186c0-.462-.187-.882-.49-1.185h.001zm3.752-3.752a6.962 6.962 0 00-4.938-2.046 6.963 6.963 0 00-4.939 2.046 6.963 6.963 0 00-2.046 4.938c0 1.929.782 3.675 2.046 4.94a6.962 6.962 0 004.939 2.045 6.961 6.961 0 004.938-2.046 6.962 6.962 0 002.046-4.939 6.962 6.962 0 00-2.046-4.938zm38.517 1.896c.838 0 1.597.341 2.148.892h.003c.55.55.89 1.31.89 2.15a3.037 3.037 0 01-3.041 3.042c-.84 0-1.6-.34-2.151-.89l-.04-.043a3.033 3.033 0 01.041-4.258l-.001-.001a3.033 3.033 0 012.15-.892zm1.186 1.856a1.674 1.674 0 00-1.186-.49 1.67 1.67 0 00-1.186.491h-.002c-.302.302-.488.72-.488 1.185 0 .45.175.858.46 1.157l.03.029c.303.303.723.49 1.186.49a1.672 1.672 0 001.676-1.675c0-.463-.188-.883-.491-1.186h.001zm-8.17 1.186c0 1.929.781 3.675 2.045 4.94a6.961 6.961 0 004.939 2.045 6.962 6.962 0 004.938-2.046 6.964 6.964 0 002.046-4.939 6.964 6.964 0 00-2.046-4.938 6.964 6.964 0 00-4.938-2.046 6.963 6.963 0 00-4.939 2.046 6.963 6.963 0 00-2.045 4.938zm13.851-20.073L73.723 19.43h-7.81v11.05H81.08zM74.656 18.37l8.238 12.376a.683.683 0 01-.542 1.099H65.23a.683.683 0 01-.683-.684V18.746c0-.377.306-.683.683-.683h8.857v.002c.22 0 .437.107.569.305z" fill="#DACA1A"/></svg><svg fill="none" viewBox="0 0 14 13" id="star" xmlns="http://www.w3.org/2000/svg"><path d="M6.635.085l2.05 4.154 4.586.67L9.953 8.14l.783 4.566-4.1-2.157-4.101 2.157.783-4.566L0 4.91l4.585-.67L6.635.085z" fill="#F07F11"/></svg><svg fill="none" viewBox="0 0 56 60" id="support" xmlns="http://www.w3.org/2000/svg"><path d="M31.496 48.95H24.53a1.936 1.936 0 01-1.927-1.74l-.32-3.142a12.994 12.994 0 01-1.503-.858l-2.956 1.314c-.901.4-1.959.06-2.457-.79l-3.484-5.941a1.937 1.937 0 01.552-2.56l2.61-1.848a12.678 12.678 0 010-1.662l-2.61-1.848a1.936 1.936 0 01-.552-2.56l3.484-5.942a1.937 1.937 0 012.457-.79l2.956 1.314c.482-.319.984-.605 1.504-.858l.319-3.141c.1-.989.933-1.741 1.927-1.741h6.967c.994 0 1.826.752 1.927 1.74l.319 3.142c.52.253 1.022.54 1.504.858l2.956-1.314c.901-.4 1.959-.06 2.457.79l3.484 5.942a1.937 1.937 0 01-.552 2.56l-2.61 1.848a12.68 12.68 0 010 1.662l2.61 1.848c.82.58 1.06 1.693.552 2.56l-3.484 5.941a1.937 1.937 0 01-2.457.79l-2.956-1.314c-.482.32-.984.606-1.504.858l-.32 3.142c-.1.988-.932 1.74-1.926 1.74zm-5.217-3.873h3.467l.258-2.534a1.936 1.936 0 011.25-1.618 9.137 9.137 0 002.54-1.447 1.936 1.936 0 012.002-.261l2.398 1.065 1.709-2.915-2.093-1.481a1.937 1.937 0 01-.793-1.895 8.876 8.876 0 000-2.874 1.937 1.937 0 01.792-1.895l2.094-1.481-1.71-2.915-2.397 1.065a1.936 1.936 0 01-2.001-.261 9.137 9.137 0 00-2.542-1.447 1.936 1.936 0 01-1.25-1.619l-.257-2.534H26.28l-.258 2.534a1.936 1.936 0 01-1.25 1.62 9.137 9.137 0 00-2.541 1.446 1.937 1.937 0 01-2.001.261l-2.398-1.065-1.709 2.915 2.093 1.481c.605.428.913 1.164.793 1.895a8.875 8.875 0 000 2.874 1.937 1.937 0 01-.793 1.895l-2.093 1.481 1.71 2.915 2.397-1.065a1.937 1.937 0 012.001.261 9.137 9.137 0 002.541 1.447 1.934 1.934 0 011.25 1.618l.258 2.534zm-.382-32.642l-2.985-2.467 3.018-3.65-3.82-3.44L24.701 0l5.2 4.68c.772.695.858 1.874.197 2.674l-4.2 5.081zM41.53 56.423l-1.878-3.387a24.299 24.299 0 003.186-2.11l2.387 3.05a28.18 28.18 0 01-3.695 2.447zm6.96-5.453l-2.844-2.63a23.896 23.896 0 002.359-3.001l3.227 2.142a27.82 27.82 0 01-2.742 3.489zm4.893-7.367l-3.525-1.604a24.21 24.21 0 001.302-3.592l3.734 1.028a28.105 28.105 0 01-1.51 4.168zm2.347-8.52l-3.85-.427a24.105 24.105 0 00.118-3.817l3.869-.19a27.908 27.908 0 01-.137 4.433zm-4.223-8.03a23.932 23.932 0 00-1.088-3.658l3.612-1.398c.533 1.38.959 2.81 1.265 4.253l-3.789.803zm-2.744-7.103a24.204 24.204 0 00-2.175-3.14l3-2.451a28.083 28.083 0 012.523 3.644l-3.348 1.947zm-4.819-5.894a23.936 23.936 0 00-3.05-2.296l2.076-3.27c1.248.792 2.44 1.69 3.544 2.668l-2.57 2.898zm-6.426-4.08A24.234 24.234 0 0033.9 8.75l.95-3.755c1.431.363 2.844.842 4.199 1.425l-1.531 3.558z" fill="#DA9D1A"/><path d="M28.013 59.925c-8.099 0-16.055-3.524-21.497-10.125l2.988-2.464c7.349 8.914 20.027 11.31 30.148 5.7l1.878 3.387a27.824 27.824 0 01-13.517 3.502zM3.015 44.388a27.758 27.758 0 01-1.63-20.63A27.759 27.759 0 0114.496 7.64a27.884 27.884 0 0114.159-3.494l-.093 3.872a23.96 23.96 0 00-12.188 3.009C5.13 17.26.789 31.159 6.487 42.669l-3.472 1.719zm23.511-13.354c0-1.235-.8-2.482-2.59-2.482-.986 0-1.793.415-2.529 1.036l.687 1.52c.484-.404.974-.867 1.65-.867.4 0 .932.095.932.907-.009.859-.732 1.685-2.462 3.331l-.878.853v1.224h5.362v-1.689h-2.467c1.318-1.286 2.295-2.417 2.295-3.833zm7.185 1.976v-4.34h-1.709l-3.331 4.768v1.218h3.244v1.9h1.797v-1.9h.977v-1.647h-.978zm-2.764 0l.968-1.345v1.344h-.968z" fill="#DA9D1A"/></svg><svg fill="none" viewBox="0 0 20 17" id="twiter" xmlns="http://www.w3.org/2000/svg"><path d="M19.333 1.342a9.083 9.083 0 01-2.616 1.275 3.733 3.733 0 00-6.55 2.5v.833a8.883 8.883 0 01-7.5-3.775s-3.334 7.5 4.166 10.833A9.7 9.7 0 011 14.675c7.5 4.167 16.667 0 16.667-9.583A3.827 3.827 0 0017.6 4.4a6.434 6.434 0 001.733-3.058v0z" stroke="#000" stroke-linecap="round" stroke-linejoin="round"/></svg></svg>