<svg width="30" height="43" fill="none" xmlns="http://www.w3.org/2000/svg"><path d="M5.532 15.733c-.853-1.566-1.736-3.184-1.748-4.37-.008-.71.842-2.9 1.447-4.226a.76.76 0 00.065-.24L5.986 0h.144l.69 6.898a.758.758 0 00.754.682c1.453 0 2.818.829 4.138 1.63 1.188.72 2.31 1.402 3.442 1.402 1.132 0 2.254-.681 3.442-1.402 1.32-.801 2.684-1.63 4.138-1.63a.758.758 0 00.754-.682L24.178 0h.144l.69 6.898a.76.76 0 00.064.24c.606 1.327 1.456 3.515 1.448 4.225-.012 1.186-.895 2.805-1.748 4.37-.58 1.066-1.173 2.153-1.569 3.218H7.101c-.396-1.065-.988-2.152-1.57-3.218zm.526 13.83a.757.757 0 00-.702.473C3.89 33.646 3.11 37.82 3.034 42.449H0c.163-10.292 3.645-14.876 5.746-17.64.36-.474.685-.904.959-1.31h16.824c.242.397.528.816.844 1.28 1.893 2.768 5.03 7.359 5.178 17.67h-3.005c-.078-4.615-.867-8.789-2.352-12.415a.759.759 0 10-1.403.574l.003.007v.001c1.409 3.443 2.16 7.421 2.237 11.833H4.55c.075-4.431.817-8.412 2.21-11.843a.758.758 0 00-.703-1.043zm15.918-1.516a.758.758 0 100-1.516.758.758 0 000 1.516zm-14.402 0a.758.758 0 100-1.516.758.758 0 000 1.516zm-.108-6.065a2.81 2.81 0 00.108-.758 4.988 4.988 0 00-.061-.758h15.282c-.04.251-.06.505-.06.758 0 .256.034.51.099.758H7.466z" fill="#DA5D1A"/></svg>